<svg width="20" height="20" viewBox="0 0 20 20" fill="none" xmlns="http://www.w3.org/2000/svg">
<circle cx="10" cy="10" r="10" fill="#DFF7F4"/>
<path d="M6.59305 14.12C6.19971 14.12 5.82305 14.0467 5.46305 13.9C5.10971 13.7533 4.80305 13.5467 4.54305 13.28C4.28971 13.0067 4.11638 12.6833 4.02305 12.31L5.20305 11.89C5.31638 12.23 5.49971 12.4833 5.75305 12.65C6.00638 12.81 6.28638 12.89 6.59305 12.89C6.84638 12.89 7.06971 12.8367 7.26305 12.73C7.46305 12.6167 7.61638 12.4633 7.72305 12.27C7.82971 12.07 7.88305 11.84 7.88305 11.58C7.88305 11.32 7.82638 11.0933 7.71305 10.9C7.60638 10.7067 7.45638 10.5567 7.26305 10.45C7.06971 10.3367 6.84638 10.28 6.59305 10.28C6.33305 10.28 6.09638 10.3367 5.88305 10.45C5.67638 10.5633 5.52638 10.7267 5.43305 10.94L4.32305 10.69L4.91305 6.55H8.97305V7.7H5.45305L5.96305 7.11L5.54305 10.23L5.15305 9.91C5.33971 9.63667 5.56638 9.43667 5.83305 9.31C6.10638 9.18333 6.43638 9.12 6.82305 9.12C7.31638 9.12 7.74305 9.22667 8.10305 9.44C8.46971 9.65333 8.75305 9.94333 8.95305 10.31C9.15305 10.6767 9.25305 11.1 9.25305 11.58C9.25305 12.06 9.13638 12.4933 8.90305 12.88C8.66971 13.2667 8.35305 13.57 7.95305 13.79C7.55305 14.01 7.09971 14.12 6.59305 14.12ZM12.5154 14V12.06H10.5754V10.93H12.5154V9H13.6454V10.93H15.5754V12.06H13.6454V14H12.5154Z" fill="#128C7E"/>
</svg>
