<svg width="20" height="20" viewBox="0 0 20 20" fill="none" xmlns="http://www.w3.org/2000/svg">
<path fill-rule="evenodd" clip-rule="evenodd" d="M9.78234 1.6666C14.2573 1.6666 17.8973 5.3066 17.8973 9.7816C17.8973 11.8929 17.0871 13.8185 15.7612 15.2637L18.3702 17.8672C18.6143 18.1113 18.6152 18.5063 18.371 18.7505C18.2493 18.8738 18.0885 18.9347 17.9285 18.9347C17.7693 18.9347 17.6093 18.8738 17.4868 18.7522L14.8464 16.1191C13.4574 17.2315 11.6962 17.8974 9.78234 17.8974C5.30734 17.8974 1.6665 14.2566 1.6665 9.7816C1.6665 5.3066 5.30734 1.6666 9.78234 1.6666ZM9.78234 2.9166C5.9965 2.9166 2.9165 5.99576 2.9165 9.7816C2.9165 13.5674 5.9965 16.6474 9.78234 16.6474C13.5673 16.6474 16.6473 13.5674 16.6473 9.7816C16.6473 5.99576 13.5673 2.9166 9.78234 2.9166Z" fill="#9393C1"/>
</svg>
